# xmcd
#
# Track frame offsets:
# 150
# 14875
# 32408
# 52401
# 69007
# 81645
# 99407
# 114894
# 129521
# 144385
# 164010
# 181202
# 201383
# 219386
# 234242
# 258992
# 283584
# 305472
# 323557
#
# Disc length: 4596 seconds
#
#
# Revision: 0
# Processed by: cddbd v1.5.1PL2 Copyright (c) Steve Scherf et al.
# Submitted via: FreeRIP 2.944 
#
DISCID=1011f213
DTITLE=Ratt - Ratt N' Roll '81-'91
DYEAR=1991
DGENRE=Hip-Hop
TTITLE0=Tell the World
TTITLE1=You Think You're Tough
TTITLE2=Round and Round
TTITLE3=Wanted Man
TTITLE4=Back For More
TTITLE5=Lack Of Communication
TTITLE6=Lay It Down
TTITLE7=You're In Love
TTITLE8=Slip of the Lip
TTITLE9=Dance
TTITLE10=Body talki
TTITLE11=Way Cool Jr.
TTITLE12=I Want A Woman
TTITLE13=Lovin' You's A Dirty Job
TTITLE14=Shame Shame Shame
TTITLE15=Givin' Yourself Away
TTITLE16=One Step Away
TTITLE17=Heads I Win, Tails You Lose
TTITLE18=Nobody Rides For Free
EXTD=
EXTT0=
EXTT1=
EXTT2=
EXTT3=
EXTT4=
EXTT5=
EXTT6=
EXTT7=
EXTT8=
EXTT9=
EXTT10=
EXTT11=
EXTT12=
EXTT13=
EXTT14=
EXTT15=
EXTT16=
EXTT17=
EXTT18=
PLAYORDER=
